<svg width="147" height="55" viewBox="0 0 147 55" fill="none" xmlns="http://www.w3.org/2000/svg">
<path d="M118.042 35.5998C118.105 40.2894 117.794 44.9397 118.12 49.5857C118.217 50.9568 118.139 52.3497 118.172 53.7295C118.187 54.2797 118.002 54.4719 117.579 54.3583C116.36 54.0439 115.148 54.0745 113.929 54.354C113.536 54.4457 113.288 54.4107 113.321 53.6902C113.862 42.6517 113.758 31.6 113.707 20.5527C113.695 18.0507 113.595 15.54 113.54 13.0336C113.525 12.3917 113.581 12.217 114.248 12.3393C115.296 12.5314 116.416 12.5795 117.457 12.3568C118.254 12.1908 118.239 12.5707 118.157 13.1471C117.961 14.4702 117.987 15.8019 117.957 17.3171C118.539 16.4788 118.984 15.7321 119.514 15.0815C121.133 13.0903 123.127 12.1646 125.469 11.9943C131.354 11.5664 135.749 16.3303 136.594 22.9281C137.287 28.3513 136.586 33.4951 132.918 37.4512C130.716 39.8265 128.048 40.6693 125.109 40.4597C122.078 40.2414 119.684 38.7524 118.046 35.5954L118.042 35.5998ZM117.909 26.7313C118.009 27.8623 117.979 29.1242 118.146 30.3861C118.554 33.4864 119.895 35.805 122.271 37.1018C126.08 39.1759 130.023 36.9621 131.283 32.1415C132.184 28.6963 132.217 25.1987 131.558 21.6837C131.228 19.9283 130.653 18.3127 129.649 16.9416C126.877 13.1602 121.252 14.0815 119.113 18.9153C118.046 21.33 117.968 23.963 117.909 26.7313Z" fill="black"/>
<path d="M31.2366 39.7174C29.506 39.1715 27.9051 39.2108 26.3041 39.534C25.6778 39.6606 25.4147 39.3942 25.2368 38.6694C24.1584 34.2636 22.6465 30.0542 21.0789 25.8711C20.7861 25.0939 20.4341 24.7184 19.6447 24.7271C16.1983 24.7795 12.7481 24.762 9.30169 24.7184C8.59016 24.7096 8.26775 25.0589 8.00834 25.7794C6.49265 29.9887 5.11778 34.2548 4.1172 38.6825C4.03197 39.0536 4.05049 39.6737 3.49832 39.5165C2.37545 39.1934 1.25999 39.3025 0 39.5995C0.859757 37.3725 1.65281 35.3115 2.44586 33.2505C6.54453 22.6443 10.6728 12.0511 14.3305 1.21774C14.727 0.0475157 15.357 0.30514 16.05 0.204711C16.7616 0.099914 17.0024 0.5322 17.2211 1.20464C21.1011 13.0641 25.5185 24.6485 29.947 36.2285C30.3694 37.3376 30.7697 38.4554 31.2366 39.7174ZM14.5306 8.10811C14.3861 8.26094 14.3231 8.30024 14.3009 8.357C12.7037 12.7279 11.1064 17.0988 9.51292 21.4697C9.3128 22.0198 9.56109 22.0679 9.93909 22.0635C13.0149 22.0591 16.0871 22.0635 19.163 22.0722C19.5965 22.0722 19.6818 21.9849 19.4854 21.4609C17.8288 17.0507 16.2057 12.6318 14.5306 8.10811Z" fill="black"/>
<path d="M94.9402 12.0248C98.1532 11.9942 101.114 12.885 103.612 15.4045C105.48 17.2908 106.588 19.7579 107.018 22.5481C107.74 27.2116 107.192 31.6305 104.594 35.4468C102.826 38.0405 100.443 39.5339 97.7307 40.1059C94.225 40.8482 90.7896 40.5338 87.6322 38.2938C84.8084 36.2896 83.4076 33.2548 82.8369 29.4953C82.4181 26.7313 82.5108 24.0633 83.2 21.3954C84.5527 16.1512 87.6804 13.3042 92.1089 12.2562C92.5796 12.1427 93.0502 11.9462 93.5579 12.0117C94.0137 12.0685 94.4807 12.0248 94.9439 12.0248H94.9402ZM102.445 26.0239C102.53 24.5567 102.419 22.9848 102.089 21.4303C101.207 17.3083 99.2464 13.8369 94.4769 14.1731C91.7124 14.3653 89.7075 15.8412 88.6291 18.7667C86.8058 23.7009 86.8837 28.7442 88.6736 33.6653C89.5741 36.1411 91.2195 37.8615 93.5838 38.2021C96.5411 38.6344 99.0463 37.6519 100.721 34.5211C102.089 31.9623 102.578 29.1459 102.448 26.0282L102.445 26.0239Z" fill="black"/>
<path d="M47.8611 25.989C45.2447 25.989 42.6284 26.0109 40.0121 25.9759C39.4228 25.9672 39.245 26.1462 39.2264 26.8711C39.1449 30.2726 39.8157 33.3292 42.0132 35.6958C43.2436 37.0189 44.6926 37.7437 46.401 37.8005C48.4206 37.866 50.3736 37.7088 52.1413 36.3945C53.0863 35.6915 53.9238 34.8531 54.6353 33.84C54.791 33.6174 54.917 33.2811 55.2098 33.4689C55.4877 33.6436 55.3691 34.0322 55.295 34.2505C55.0949 34.8531 55.1245 35.4644 55.1468 36.0757C55.1653 36.5604 55.0208 36.8704 54.7021 37.1804C52.8973 38.9139 50.848 39.8702 48.5355 40.2239C46.0044 40.6082 43.5437 40.4859 41.1646 39.3462C37.3846 37.5298 35.313 34.1588 34.6052 29.4473C34.1049 26.12 34.3162 22.8932 35.4057 19.8148C36.9547 15.4308 39.8268 12.9768 43.8069 12.2389C45.7784 11.8721 47.7017 11.9769 49.6139 12.5795C53.2123 13.7148 55.2135 16.636 56.0436 20.7885C56.3289 22.2251 56.4327 23.701 56.4475 25.19C56.4549 25.893 56.2622 26.0283 55.71 26.024C53.0937 25.9934 50.4774 26.0109 47.8611 26.0065V25.989ZM45.4448 23.7359C45.4448 23.7054 45.4448 23.6748 45.4448 23.6442C47.2607 23.6442 49.0803 23.6049 50.8961 23.6617C51.6966 23.6879 51.8448 23.2294 51.7633 22.4653C51.6633 21.5745 51.5891 20.675 51.4261 19.7973C50.9666 17.3259 49.9475 15.2387 47.8018 14.5051C45.5153 13.7235 43.2806 14.0684 41.5129 16.2124C39.9861 18.0638 39.5488 20.4698 39.2412 22.9194C39.1486 23.6661 39.4932 23.749 39.9972 23.7447C41.8131 23.7272 43.629 23.7359 45.4448 23.7359Z" fill="black"/>
<path d="M69.9887 12.0292C72.101 11.9288 73.9465 12.4615 75.7179 13.4265C76.1886 13.6841 76.4702 13.9286 76.1738 14.6229C75.755 15.5923 75.7328 16.7058 75.4771 17.7406C75.4141 17.9982 75.5734 18.4262 75.2547 18.4786C74.9064 18.5353 74.8471 18.0725 74.7766 17.793C74.2541 15.7757 72.9904 14.6884 71.3561 14.2998C70.1999 14.0247 68.9659 13.9854 67.8022 14.4352C66.4496 14.9591 65.5157 16.0202 65.323 17.7363C65.1229 19.5309 65.6603 21.0024 66.9647 22.0373C68.1543 22.9848 69.5218 23.3647 70.8707 23.797C71.9824 24.155 73.0905 24.5262 74.1541 25.0633C77.052 26.5261 77.6969 28.9582 77.5486 31.9012C77.3077 36.6739 74.6173 39.2719 71.0152 40.1278C67.9727 40.8526 65.0006 40.3767 62.1842 38.7349C61.5208 38.3462 61.2095 38.0013 61.6283 37.1192C62.0471 36.2372 62.0693 35.1892 62.3213 34.233C62.3917 33.971 62.3102 33.5562 62.6066 33.5169C62.8809 33.4819 62.9661 33.8662 63.0662 34.1238C63.8852 36.2503 65.286 37.6214 67.1982 38.0449C68.9436 38.4292 70.6891 38.4685 72.3419 37.2808C74.4098 35.7918 74.9064 31.4821 72.0047 29.8708C70.4 28.98 68.7102 28.3906 67.0388 27.7225C64.719 26.7968 62.7252 25.3689 61.9989 22.3866C60.9538 18.1118 63.2107 13.5968 66.8832 12.4571C67.9542 12.1253 69.0326 11.9157 69.9961 12.0292H69.9887Z" fill="black"/>
<path d="M46.1749 5.00351C48.113 5.00351 50.0512 5.0166 51.9894 4.99478C52.4971 4.99041 52.7528 5.07772 52.7602 5.8111C52.7676 6.61433 52.4118 6.56195 51.956 6.56195C48.05 6.55322 44.1441 6.55321 40.2381 6.57068C39.7712 6.57068 39.534 6.53575 39.5377 5.84166C39.5377 5.1432 39.723 4.99914 40.2715 5.01224C42.2393 5.05153 44.2071 5.02534 46.1749 5.02534C46.1749 5.02097 46.1749 5.01224 46.1749 5.00787V5.00351Z" fill="black"/>
<path d="M143.854 40.189C142.038 40.189 140.763 38.6301 140.793 36.4556C140.819 34.5736 142.26 32.9886 143.943 32.9929C145.607 32.9929 147.004 34.6784 147 36.6739C147 38.7 145.658 40.1977 143.854 40.1933V40.189ZM143.839 33.613C142.079 33.5344 141.274 35.0277 141.297 36.6739C141.326 38.6214 142.327 39.6257 143.917 39.7174C145.221 39.7916 146.563 38.1891 146.477 36.687C146.37 34.7526 145.473 33.6086 143.839 33.613Z" fill="black"/>
<path d="M143.294 36.46C143.294 37.1368 143.305 37.5734 143.29 38.0057C143.283 38.2721 143.183 38.569 142.949 38.569C142.653 38.5646 142.712 38.1891 142.712 37.9708C142.709 36.9577 142.872 35.9404 142.609 34.9404C142.553 34.7308 142.623 34.5562 142.801 34.5431C143.502 34.4907 144.221 34.3684 144.865 34.8182C145.292 35.1151 145.269 35.853 144.836 36.1543C144.606 36.3159 144.343 36.4119 144.032 36.5691C144.513 37.2241 145.062 37.7394 145.381 38.6694C144.361 38.3245 144.113 37.2154 143.29 36.4643L143.294 36.46ZM143.302 35.46C143.324 35.8225 143.19 36.3333 143.739 36.2722C144.124 36.2285 144.573 36.1718 144.58 35.5474C144.584 34.971 144.232 34.7876 143.798 34.7221C143.272 34.6479 143.287 35.0408 143.305 35.46H143.302Z" fill="black"/>
</svg>
